# xmcd
#
# Track frame offsets:
#	150
#	61950
#	89231
#	143907
#	181729
#
# Disc length: 2803 seconds
#
# Revision: 1
# Processed by: cddbd v1.5.2PL0 Copyright (c) Steve Scherf et al.
# Submitted via: audiograbber 1.83.01
#
DISCID=430af105
DTITLE=Grateful Dead - 95-04-02 The Pyramid, Memphis TN
DYEAR=1900
DGENRE=
TTITLE0=Space
TTITLE1=The Last Time
TTITLE2=Wharf Rat
TTITLE3=Not Fade Away
TTITLE4=Unbroken Chain
EXTD=
EXTT0=
EXTT1=
EXTT2=
EXTT3=
EXTT4=
PLAYORDER=
